<svg version="1.1" xmlns="http://www.w3.org/2000/svg" xmlns:xlink="http://www.w3.org/1999/xlink" x="0px" y="0px" width="124.4px"
	 height="124.4px" viewBox="0 0 124.4 124.4" style="enable-background:new 0 0 124.4 124.4;" xml:space="preserve">
<defs>
</defs>
<path d="M120.4,52.4L72.1,4.1c-5.4-5.4-14.3-5.4-19.7,0L4.1,52.4c-5.4,5.4-5.4,14.3,0,19.7l48.3,48.3c5.4,5.4,14.3,5.4,19.7,0
	l48.3-48.3C125.8,66.6,125.8,57.8,120.4,52.4z M115.2,71.2l-44,44c-5,5-13,5-18,0l-44-44c-5-5-5-13,0-18L44,18.5l7.3,7.3
	c-1.3,2-2,4.4-2,7c0,6,4.1,11.1,9.6,12.5v28.9c-5.5,1.5-9.6,6.5-9.6,12.5c0,7.2,5.8,13,13,13s13-5.8,13-13c0-6.5-4.7-11.8-10.9-12.8
	V45.5c1.8-0.3,3.4-0.9,4.9-1.9l8.5,8.5c-1.5,2.1-2.4,4.7-2.4,7.6c0,7.2,5.8,13,13,13s13-5.8,13-13s-5.8-13-13-13
	c-2.4,0-4.6,0.6-6.5,1.8l-8.6-8.6c1.3-2,2.1-4.5,2.1-7.1c0-7.2-5.8-13-13-13c-2.6,0-5.1,0.8-7.1,2.1l-7.3-7.3l5.4-5.4c5-5,13-5,18,0
	l44,44C120.2,58.2,120.2,66.2,115.2,71.2z M54.2,32.7c0-4.4,3.6-8,8-8s8,3.6,8,8s-3.6,8-8,8S54.2,37.1,54.2,32.7z M70.2,86.7
	c0,4.4-3.6,8-8,8s-8-3.6-8-8s3.6-8,8-8S70.2,82.3,70.2,86.7z M80.2,59.7c0-4.4,3.6-8,8-8s8,3.6,8,8s-3.6,8-8,8S80.2,64.1,80.2,59.7z
	"/>
</svg>
