<svg width="45" height="40" viewBox="0 0 45 40" fill="none" xmlns="http://www.w3.org/2000/svg">
<path fill-rule="evenodd" clip-rule="evenodd" d="M43.8558 9.34247L23.2825 0.167881C22.7844 -0.0559604 22.2151 -0.0559604 21.7145 0.167881L1.14215 9.34247C0.470626 9.64146 0.0271665 10.2996 0.00226289 11.0352C-0.0217669 11.7693 0.371303 12.4553 1.02069 12.8007L21.5927 23.7719C21.8764 23.9241 22.1873 23.9985 22.4991 23.9985C22.8125 23.9985 23.123 23.9241 23.4072 23.7719L43.9802 12.8007C44.629 12.4553 45.0225 11.7693 44.9989 11.0352C44.9708 10.2996 44.5284 9.64146 43.8558 9.34247ZM42.1654 17.5515L22.498 28.0431L2.83392 17.5515C1.89253 17.0492 0.726869 17.4056 0.227922 18.3452C-0.27452 19.2844 0.0818496 20.4498 1.02062 20.9508L21.5926 31.925C21.8763 32.0762 22.1873 32.1514 22.4991 32.1514C22.8125 32.1514 23.123 32.0772 23.4071 31.925L43.9801 20.9508C44.9167 20.4498 45.2726 19.2844 44.7731 18.3452C44.2704 17.4054 43.1038 17.0491 42.1654 17.5515ZM22.498 35.5647L42.1654 25.0766C43.1054 24.5737 44.2704 24.9307 44.7731 25.869C45.2726 26.8084 44.9167 27.9748 43.9801 28.475L23.4071 39.4457C23.123 39.5989 22.8125 39.6732 22.4991 39.6732C22.1873 39.6732 21.8763 39.5979 21.5926 39.4457L1.02062 28.475C0.0818496 27.9748 -0.27452 26.8082 0.227922 25.869C0.726869 24.9307 1.89253 24.5739 2.83392 25.0766L22.498 35.5647Z" fill="black"/>
</svg>
