<svg version="1.1" xmlns="http://www.w3.org/2000/svg" xmlns:xlink="http://www.w3.org/1999/xlink" x="0px" y="0px" width="246.8px"
	 height="285px" viewBox="0 0 246.8 285" style="enable-background:new 0 0 246.8 285;" xml:space="preserve">
<style type="text/css">
	.st0{fill:#FFFFFF;}
	.st1{fill:#90D5FC;}
	.st2{fill:#1D78BF;}
</style>
<defs>
</defs>
<g>
	<polygon class="st0" points="246.8,71.3 123.4,0 0,71.3 0,213.8 123.4,285 246.8,213.8 	"/>
	<polygon class="st1" points="228.6,81.8 123.4,21 18.2,81.8 18.2,203.2 123.4,264 228.6,203.2 	"/>
	<polygon class="st0" points="200.1,97.7 123.4,53.4 46.7,97.7 46.7,186.3 123.4,230.6 200.1,186.3 	"/>
	<polygon class="st2" points="191.3,103.3 123.4,64.1 55.5,103.3 55.5,181.7 123.4,220.9 191.3,181.7 	"/>
	<polygon class="st0" points="230.6,85.2 226.1,77.1 123.6,138.2 21,77.1 16.5,85.2 119.1,146.2 119.1,264.2 128.1,264.2 
		128.1,146.2 	"/>
	
		<rect x="211.7" y="169.9" transform="matrix(0.4328 -0.9015 0.9015 0.4328 -54.0235 306.0752)" class="st0" width="9" height="52.2"/>
	<rect x="4.1" y="189.5" transform="matrix(0.9015 -0.4328 0.4328 0.9015 -80.9755 32.1918)" class="st0" width="52.2" height="9"/>
	<rect x="119.1" y="9.9" class="st0" width="9" height="52.2"/>
</g>
</svg>
