<svg version="1.1" xmlns="http://www.w3.org/2000/svg" xmlns:xlink="http://www.w3.org/1999/xlink" x="0px" y="0px" width="119.8px"
	 height="90.1px" viewBox="0 0 119.8 90.1" style="enable-background:new 0 0 119.8 90.1;" xml:space="preserve">
<style type="text/css">
	.st0{fill:#00ADEF;}
	.st1{fill:#FFFFFF;}
	.st2{fill:#E69629;}
</style>
<defs>
</defs>
<g>
	<g>
		<g>
			<g>
				<path class="st0" d="M43.4,6.8c15.9-2.6,30-4.6,45.9-6.8C89.7,0,90,0.2,90,0.6l0,0v41.6c0,0.3-0.3,0.6-0.6,0.6
					c-15.8,0-31.9,0.3-47.6,0.3c-0.3,0-0.6-0.3-0.6-0.6v-32V7.7c0-0.3,0.2-0.5,0.5-0.6L43.4,6.8z"/>
				<path class="st0" d="M2.3,12.4l34-4.5c0.3,0,0.6,0.2,0.6,0.6v34.1c0,0.3-0.3,0.6-0.6,0.6c-12.1,0-24,0.3-35.8,0.3
					c-0.3,0-0.6-0.3-0.6-0.6V15v-1.7c0-0.3,0.2-0.5,0.5-0.6L2.3,12.4z"/>
				<path class="st0" d="M0.6,47.1c11.8,0,23.6,0.3,35.8,0c0.3,0,0.6,0.2,0.6,0.6V82c0,0.3-0.3,0.6-0.6,0.6
					c-12.1-1.6-24-3.2-35.8-4.8c-0.3,0-0.5-0.3-0.5-0.6V47.6C0,47.3,0.3,47.1,0.6,47.1z"/>
				<g>
					<path class="st0" d="M43.4,47.4h46c0.3,0,0.6,0.3,0.6,0.6v40.3v1.3c0,0.4-0.3,0.6-0.7,0.6c-15.8-2.6-31.9-4.5-47.6-6.7
						c-0.3,0-0.5-0.3-0.5-0.6V48c0-0.3,0.3-0.6,0.6-0.6L43.4,47.4L43.4,47.4z"/>
				</g>
			</g>
		</g>
		<g>
			<g>
				<path class="st0" d="M44.8,42.5V9.9V7c0-0.1,0.1-0.3,0.1-0.4c-0.5,0.1-1,0.2-1.6,0.3l-1.7,0.3c-0.3,0-0.5,0.3-0.5,0.6v2.9v32
					c0,0.3,0.3,0.6,0.6,0.6c1.2,0,2.4,0,3.5,0C45,43,44.8,42.8,44.8,42.5z"/>
				<path class="st0" d="M3.6,42.8V14.3v-1.7c0-0.1,0-0.3,0.1-0.4l-1.4,0.2l-1.8,0.3C0.2,12.7,0,13,0,13.3V15v27.9
					c0,0.3,0.3,0.6,0.6,0.6c1.2,0,2.3,0,3.5,0C3.8,43.4,3.6,43.1,3.6,42.8z"/>
				<path class="st0" d="M36.7,47.2c-0.1-0.1-0.2-0.1-0.3-0.1l0,0L36.7,47.2z"/>
				<path class="st0" d="M3.6,78.2V47.6c0-0.3,0.2-0.5,0.5-0.6c-1.2,0-2.4,0-3.5,0c-0.3,0-0.6,0.3-0.6,0.6v29.6
					c0,0.3,0.2,0.5,0.5,0.6C1.5,77.9,2.6,78.1,3.6,78.2C3.6,78.2,3.6,78.2,3.6,78.2z"/>
				<path class="st0" d="M44.8,83.6V48c0-0.3,0.3-0.6,0.6-0.6h-2h-1.6c-0.3,0-0.6,0.3-0.6,0.6v34.9c0,0.3,0.2,0.5,0.5,0.6
					c1.1,0.2,2.1,0.3,3.2,0.5C44.9,83.8,44.8,83.7,44.8,83.6z"/>
			</g>
		</g>
	</g>
	<g>
		<g>
			<path class="st1" d="M81.9,19.4c0-0.1,0-0.3,0-0.4c0-2,1.3-3.7,3-3.7c1.7,0,3,1.6,3,3.7c0,0.5-0.1,0.9-0.2,1.3
				c0.5-0.8,0.8-1.8,0.8-2.8c0-2.5-1.6-4.5-3.5-4.5c-1.9,0-3.5,2-3.5,4.5c0,0.6,0.1,1.2,0.3,1.8C81.8,19.4,81.8,19.4,81.9,19.4z"/>
			<path class="st1" d="M73.2,15.5c0.1,0,0.2,0,0.3,0c1.3,0,2.5,1.3,2.8,3c0,0.2,0.1,0.4,0.1,0.6c0.1,0,0.2-0.1,0.3-0.1
				c0-0.3,0.1-0.6,0.1-0.9c0-2.3-1.2-4.2-2.6-4.2c-1.2,0-2.2,1.3-2.5,3.2C71.8,16.2,72.4,15.7,73.2,15.5z"/>
			<path class="st1" d="M97.7,61.6c0.3-1.4,1-4.9,0.4-9.2c-0.8-5.4-8.4-22.3-9.7-24.2c-0.8,0.1-2.8,1.3-4.5,2.2
				C82,31.5,80,32.6,78.6,33c-0.3,0.1-0.6,0.1-0.9,0.1c-2,0-4.1-1.7-5.5-3c-0.2,2.5-1.6,5.8-3.1,7.4c-0.9,1.1-1.8,3.5-2.6,5.8
				c-0.7,2.2-1.5,4.4-2.4,5.9c-1.9,3-3,8.7-1.6,12c0.7,1.6,3.1,3.5,5.2,5.1c2.6,2,4.9,3.8,5.1,5.5c0.3,2.1-0.8,3.2-1.9,3.8l2.8,3.2
				c0.4,0.1,1.5,0.2,3.1,0.2c1.9,0,4-0.2,6.3-0.5c5.6-0.8,9.5-5.4,10.2-6.4c0-1.3,0-7.1,0.4-8.9c0.1-0.7,0.7-1.9,2.8-1.9
				C97.1,61.5,97.4,61.5,97.7,61.6z"/>
		</g>
		<g>
			<path class="st2" d="M73.3,25.9c0.1,0.4,1.1,1.5,2.6,2.5c0.2,0.1,0.4,0.3,0.6,0.4c0.8,0.6,1.2,0.8,1.8,0.7
				c0.9-0.1,4.1-2.1,5.5-2.9l0.3-0.2c0.5-0.3,0.9-0.5,1.3-0.7c0.7-0.3,0.7-0.4,0.7-0.5c-0.1-0.2-0.7-0.7-1.9-1.1
				c-0.4-0.1-0.9-0.3-1.5-0.6c-1.3-0.5-3.2-1.3-3.9-1.4c0,0-0.1,0-0.1,0c-0.6,0-1.9,0.8-3.2,2C75.1,24.6,73.8,25.5,73.3,25.9z"/>
			<path class="st2" d="M62.2,69.6c-0.5-0.9-1-1.7-1.3-2.1c-1-1.6-2.8-3.3-3.6-3.3c-0.1,0-0.1,0-0.1,0c-0.4,0.3-0.8,1-1.2,1.8
				c-0.5,1-1.1,2.2-2.1,2.8c-0.8,0.5-2,0.7-3.1,1c-0.8,0.2-2.7,0.6-2.8,1c-0.1,0.5,0,1.1,0.1,1.7c0.2,0.8,0.4,1.8,0.2,3
				c-0.1,0.8-0.4,1.5-0.6,2.2c-0.3,1-0.7,2.1-0.4,2.5c0.4,0.3,2.7,0.7,4.3,1c2.1,0.3,4.3,0.7,5.6,1.3l0.4,0.1c2.4,1,6.8,2.9,9.1,2.9
				c0.2,0,0.4,0,0.5,0c0.4-0.3,2-1.4,2.3-2.9c0.4-1.9-1.3-4-2.3-5.2C66.1,76.1,63.9,72.3,62.2,69.6z"/>
			<path class="st2" d="M112.9,74.1l-0.3-0.1c-1.9-1-2.9-3.7-2.7-5.7c0-0.4,0-0.7-0.1-0.9c-0.3,0.6-0.8,1.3-1.4,1.9
				c-1,1-3.4,2.1-5.6,2.1c-0.8,0-1.6-0.1-2.2-0.4c-2.2-1-2.5-3.7-2.5-5.1c0,0-0.1,0-0.1,0c-0.1,0.5,0,2.1,0.1,3.2
				c0,0.6,0.1,1.2,0.1,1.7c0.1,2.4-0.6,6.5-1.3,9.5c-0.6,2.9,0.5,5,2,5.4c0.1,0,0.3,0.1,0.4,0.1c1.3,0,3.5-1.4,5.4-3.4
				c1.4-1.4,4.4-3,7.1-4.4c1.5-0.8,3.1-1.6,3.5-2c0.1-0.1,0.1-0.1,0.1-0.1C115.4,75.4,113.6,74.4,112.9,74.1z"/>
		</g>
		<path d="M117.4,72.3c-2.6-1.1-3.8-2.5-3.7-4.7c0.1-2.5-1.3-4.3-2-5.1c0.4-1.6,1.6-6.9,0-11.6c-1.7-5-6.9-12.6-12.3-20.1
			c-2.2-3.1-2.3-6.4-2.4-10.3c-0.1-3.7-0.2-7.9-2.3-12.5c-2.2-5.1-6.7-8-12.3-8c-3.3,0-6.8,1-9.4,2.9c-5.4,3.7-4.7,11.8-4.2,17.2
			c0.1,0.7,0.1,1.4,0.2,2c0.3,5.3,0,8-0.3,8.9c-0.2,0.6-1.4,2.1-2.7,3.8c-1.3,1.7-2.8,3.7-4,5.5c-1.4,2.2-2.6,5.5-3.7,8.7
			c-0.8,2.4-1.6,4.6-2.4,5.9c-1.4,2.6-1.1,4.9-0.8,6.1c-0.5,0.4-1.3,1.1-2,2.5c-0.8,1.7-2.4,2.6-5.8,3.3c-1.6,0.3-2.6,1-3.2,1.9
			c-0.8,1.4-0.4,3.2,0,4.4c0.6,1.8,0.2,2.9-0.5,5c-0.2,0.5-0.3,1-0.5,1.6c-0.3,0.9-0.2,1.8,0.3,2.5c1.3,2,5,2.6,8.8,3.1
			c2.3,0.3,4.8,1.2,7.2,2.1c2.4,0.9,4.8,1.8,7.1,2c0.3,0,0.7,0.1,1,0.1c3.4,0,4.9-2.2,5.4-3.2c1.2-0.2,5.4-1,9.7-1.1
			c4.3-0.1,8.5,0.7,9.6,1c0.4,0.7,1.3,2.3,2.9,3.2c0.9,0.5,2,0.7,3.3,0.7c0,0,0,0,0,0c1.3,0,3.8-0.3,5.7-2.4c2-2.1,6.8-4.7,10.4-6.7
			c0.8-0.4,1.5-0.8,2.2-1.2c2-1.1,3.1-2.7,3-4.4C119.7,74.1,118.8,72.9,117.4,72.3z M84.9,13.1c1.9,0,3.5,2,3.5,4.5
			c0,1-0.3,2-0.8,2.8c0.1-0.4,0.2-0.9,0.2-1.3c0-2.1-1.3-3.7-3-3.7c-1.6,0-3,1.7-3,3.7c0,0.1,0,0.3,0,0.4c-0.1,0-0.2-0.1-0.3-0.1
			c-0.2-0.6-0.3-1.2-0.3-1.8C81.4,15.1,83,13.1,84.9,13.1z M78.9,22.1c0.7,0.1,2.6,0.9,3.9,1.4c0.6,0.2,1.1,0.5,1.5,0.6
			c1.2,0.4,1.8,0.9,1.9,1.1c0,0.1-0.1,0.2-0.7,0.5c-0.3,0.2-0.7,0.4-1.3,0.7l-0.3,0.2c-1.4,0.8-4.7,2.8-5.5,2.9
			c-0.6,0.1-1-0.2-1.8-0.7c-0.2-0.1-0.4-0.3-0.6-0.4c-1.5-1-2.5-2.1-2.6-2.5c0.5-0.4,1.7-1.3,2.3-1.9C76.9,22.9,78.2,22.1,78.9,22.1
			C78.9,22.1,78.9,22.1,78.9,22.1z M74,13.9c1.4,0,2.6,1.9,2.6,4.2c0,0.3,0,0.6-0.1,0.9c-0.1,0-0.2,0.1-0.3,0.1c0-0.2,0-0.4-0.1-0.6
			c-0.3-1.8-1.5-3-2.8-3c-0.1,0-0.2,0-0.3,0c-0.8,0.1-1.4,0.7-1.7,1.5C71.7,15.3,72.8,13.9,74,13.9z M69.6,82.5
			c-0.3,1.4-1.9,2.6-2.3,2.9c-0.1,0-0.3,0-0.5,0c-2.2,0-6.7-1.9-9.1-2.9l-0.4-0.1c-1.3-0.6-3.5-0.9-5.6-1.3c-1.7-0.3-4-0.6-4.3-1
			c-0.3-0.3,0-1.5,0.4-2.5c0.2-0.7,0.5-1.4,0.6-2.2c0.2-1.2,0-2.2-0.2-3c-0.1-0.7-0.3-1.2-0.1-1.7c0.1-0.4,2-0.8,2.8-1
			c1.1-0.2,2.3-0.5,3.1-1c1-0.6,1.6-1.8,2.1-2.8c0.4-0.7,0.7-1.5,1.2-1.8c0,0,0.1,0,0.1,0c0.8,0,2.6,1.8,3.6,3.3
			c0.3,0.4,0.7,1.2,1.3,2.1c1.6,2.7,3.9,6.5,5.1,7.8C68.3,78.5,70,80.7,69.6,82.5z M94,63.4c-0.4,1.8-0.4,7.6-0.4,8.9
			c-0.8,1-4.7,5.6-10.2,6.4c-2.3,0.3-4.4,0.5-6.3,0.5c-1.6,0-2.7-0.1-3.1-0.2l-2.8-3.2c1.1-0.5,2.2-1.7,1.9-3.8
			c-0.2-1.8-2.5-3.5-5.1-5.5c-2.1-1.7-4.6-3.5-5.2-5.1c-1.4-3.3-0.3-9,1.6-12c0.9-1.5,1.7-3.7,2.4-5.9c0.8-2.3,1.6-4.8,2.6-5.8
			c1.5-1.7,2.8-4.9,3.1-7.4c1.4,1.3,3.5,3,5.5,3c0.3,0,0.6,0,0.9-0.1c1.3-0.4,3.3-1.5,5.2-2.6c1.7-1,3.7-2.1,4.5-2.2
			c1.3,1.9,8.9,18.8,9.7,24.2c0.6,4.3,0,7.8-0.4,9.2c-0.3,0-0.6-0.1-0.9-0.1C94.7,61.5,94.1,62.7,94,63.4z M115.3,75.9
			c-0.4,0.4-2,1.2-3.5,2c-2.7,1.4-5.7,2.9-7.1,4.4c-1.9,2-4.1,3.4-5.4,3.4c-0.2,0-0.3,0-0.4-0.1c-1.4-0.4-2.6-2.5-2-5.4
			c0.7-3,1.4-7.1,1.3-9.5c0-0.5-0.1-1.1-0.1-1.7c-0.1-1.1-0.2-2.7-0.1-3.2c0,0,0.1,0,0.1,0c0,1.4,0.3,4.1,2.5,5.1
			c0.7,0.3,1.4,0.4,2.2,0.4c2.2,0,4.6-1.1,5.6-2.1c0.6-0.6,1.1-1.3,1.4-1.9c0.1,0.2,0.1,0.5,0.1,0.9c-0.1,2,0.9,4.7,2.7,5.7l0.3,0.1
			c0.7,0.4,2.4,1.3,2.5,1.7C115.4,75.8,115.4,75.8,115.3,75.9z"/>
	</g>
</g>
</svg>
